# xmcd
#
# Track frame offsets:
#	150
#	7270
#	22475
#	34265
#	47665
#	59832
#	71922
#	84794
#	96782
#	105805
#	116378
#	128956
#
# Disc length: 1873 seconds
#
# Revision: 1
# Processed by: cddbd v1.5.2PL0 Copyright (c) Steve Scherf et al.
# Submitted via: audiograbber 1.83.01
#
DISCID=a4074f0c
DTITLE=Wayne Massengale - Licensed To Fiddle
DYEAR=1900
DGENRE=Instrumental
TTITLE0=Licensed To Fiddle
TTITLE1=Goldrush
TTITLE2=Sally Goodin
TTITLE3=I'm Not Over You
TTITLE4=Beaumont Rag
TTITLE5=Clarinet Polka
TTITLE6=End Of The Line
TTITLE7=Taylor Waltz
TTITLE8=Roanoke
TTITLE9=Cotton Eyed Joe
TTITLE10=Wheel Hoss
TTITLE11=Orange Blossom Special
EXTD=
EXTT0=
EXTT1=
EXTT2=
EXTT3=
EXTT4=
EXTT5=
EXTT6=
EXTT7=
EXTT8=
EXTT9=
EXTT10=
EXTT11=
PLAYORDER=
